<svg width="24" height="24" viewBox="0 0 24 24" fill="none" xmlns="http://www.w3.org/2000/svg">
<path fill-rule="evenodd" clip-rule="evenodd" d="M3.34835 4.34835C4.81281 2.88388 7.18718 2.88388 8.65165 4.34835C9.1921 4.8888 9.5331 5.55317 9.67465 6.25H20C20.4142 6.25 20.75 6.58579 20.75 7C20.75 7.41421 20.4142 7.75 20 7.75H9.67465C9.5331 8.44683 9.1921 9.1112 8.65165 9.65165C7.18718 11.1161 4.81281 11.1161 3.34835 9.65165C1.88388 8.18718 1.88388 5.81281 3.34835 4.34835ZM4.40901 5.40901C5.28768 4.53033 6.71231 4.53033 7.59099 5.40901C8.46966 6.28768 8.46966 7.71231 7.59099 8.59099C6.71231 9.46966 5.28768 9.46966 4.40901 8.59099C3.53033 7.71231 3.53033 6.28768 4.40901 5.40901Z" fill="white"/>
<path fill-rule="evenodd" clip-rule="evenodd" d="M20.6516 14.3484C19.1872 12.8839 16.8128 12.8839 15.3483 14.3484C14.8079 14.8888 14.4669 15.5532 14.3253 16.25H4C3.58579 16.25 3.25 16.5858 3.25 17C3.25 17.4142 3.58579 17.75 4 17.75H14.3253C14.4669 18.4468 14.8079 19.1112 15.3483 19.6517C16.8128 21.1161 19.1872 21.1161 20.6516 19.6517C22.1161 18.1872 22.1161 15.8128 20.6516 14.3484ZM19.591 15.409C18.7123 14.5303 17.2877 14.5303 16.409 15.409C15.5303 16.2877 15.5303 17.7123 16.409 18.591C17.2877 19.4697 18.7123 19.4697 19.591 18.591C20.4697 17.7123 20.4697 16.2877 19.591 15.409Z" fill="white"/>
</svg>
